<svg xmlns="http://www.w3.org/2000/svg" viewBox="0 0 48 48">
  <g transform="matrix(3.4285714285714284,0,0,3.4285714285714284,0,0)"><g>
    <path d="M11.5,8.5h-9l-.76,3.8a1,1,0,0,0,.21.83,1,1,0,0,0,.77.37h8.56a1,1,0,0,0,.77-.37,1,1,0,0,0,.21-.83Z" style="fill: none;stroke: #000000;stroke-linecap: round;stroke-linejoin: round"></path>
    <path d="M11.5,5.5a1,1,0,0,1,1,1v2H1.5v-2a1,1,0,0,1,1-1H4a1,1,0,0,0,1-1v-2a2,2,0,0,1,4,0v2a1,1,0,0,0,1,1Z" style="fill: none;stroke: #000000;stroke-linecap: round;stroke-linejoin: round"></path>
    <line x1="8.5" y1="13.5" x2="8.5" y2="11" style="fill: none;stroke: #000000;stroke-linecap: round;stroke-linejoin: round"></line>
  </g></g>
</svg>