<svg width="29" height="17" fill="none" xmlns="http://www.w3.org/2000/svg"><path d="M7.364 16.22c-1.394 0-2.589-.205-3.586-.616-.998-.41-1.753-.946-2.266-1.606-.499-.675-.763-1.408-.792-2.2 0-.117.044-.22.132-.308a.484.484 0 01.352-.154h2.772a.71.71 0 01.418.11c.117.059.234.154.352.286.19.381.498.697.924.946.425.25.99.374 1.694.374.836 0 1.474-.132 1.914-.396.44-.264.66-.623.66-1.078 0-.323-.118-.587-.352-.792-.22-.205-.572-.389-1.056-.55-.484-.161-1.203-.345-2.156-.55-1.76-.367-3.08-.902-3.96-1.606-.866-.719-1.298-1.738-1.298-3.058 0-.895.249-1.694.748-2.398.498-.704 1.21-1.254 2.134-1.65C4.922.578 6 .38 7.232.38c1.276 0 2.383.22 3.322.66.938.44 1.65.997 2.134 1.672.498.66.762 1.313.792 1.958a.448.448 0 01-.462.462h-2.904a.98.98 0 01-.44-.088.883.883 0 01-.286-.286c-.088-.337-.33-.623-.726-.858-.382-.235-.858-.352-1.43-.352-.66 0-1.166.117-1.518.352-.352.235-.528.58-.528 1.034 0 .308.095.565.286.77.205.205.528.396.968.572.454.161 1.1.33 1.936.506 1.364.25 2.449.565 3.256.946.821.367 1.422.85 1.804 1.452.381.587.572 1.327.572 2.222 0 .983-.286 1.84-.858 2.574-.558.719-1.342 1.276-2.354 1.672-.998.381-2.142.572-3.432.572zM13.79 16a.586.586 0 01-.396-.154.586.586 0 01-.154-.396V1.15c0-.161.05-.293.154-.396A.586.586 0 0113.79.6h2.376c.352 0 .608.161.77.484l3.872 6.93 3.872-6.93c.16-.323.418-.484.77-.484h2.354c.16 0 .293.051.396.154a.502.502 0 01.176.396v14.3a.502.502 0 01-.176.396.536.536 0 01-.396.154h-2.618a.614.614 0 01-.418-.154.536.536 0 01-.154-.396V7.2l-2.464 4.598c-.191.337-.448.506-.77.506h-1.144a.75.75 0 01-.462-.132 1.138 1.138 0 01-.308-.374L16.98 7.2v8.25a.586.586 0 01-.154.396.536.536 0 01-.396.154h-2.64z" fill="#647387"/></svg>